<?xml version="1.0" encoding="UTF-8"?>
<svg xmlns="http://www.w3.org/2000/svg" xmlns:xlink="http://www.w3.org/1999/xlink" width="420" height="230" viewBox="90 308 415 222">
<path fill-rule="evenodd" fill="#A389B5" fill-opacity="1" d="M 174.941406 437.003906 C 177.441406 436.136719 191.507812 420.679688 193.84375 418.402344 C 203.664062 408.828125 219.792969 391.1875 230.007812 380.441406 C 232.710938 377.59375 236.230469 373.90625 238.929688 370.980469 C 241.535156 368.160156 245.0625 364.261719 248.097656 361.863281 L 247.976562 324.585938 C 245.441406 325.484375 244.984375 327.371094 243.113281 329.230469 L 193.042969 380.246094 C 190.523438 382.839844 177.867188 396.59375 174.941406 398.453125 C 173.699219 397.585938 174.765625 398.382812 173.511719 397.25 L 170.082031 393.957031 C 168.492188 392.390625 167.433594 391.070312 165.65625 389.195312 L 120.46875 343.097656 C 118.601562 341.113281 104.902344 325.644531 102.328125 325.480469 L 102.167969 418.484375 C 102.15625 425.140625 101.609375 473.136719 102.539062 474.3125 C 103.515625 475.542969 114.511719 474.910156 116.75 474.921875 C 120.871094 474.949219 126.863281 475.601562 130.726562 474.671875 L 130.511719 392.410156 C 133.988281 393.429688 132.757812 394.183594 136.5625 398.050781 Z M 174.941406 437.003906 "/>
<path fill-rule="evenodd" fill="#A389B5" fill-opacity="1" d="M 335.398438 477.222656 C 334.8125 475.234375 313.808594 457.609375 327.417969 426.371094 C 334.535156 410.023438 347.324219 400.203125 354.21875 385.800781 C 356.910156 380.175781 361.925781 367.6875 365.984375 363.90625 C 374.386719 356.082031 382.847656 362.835938 387.28125 351.550781 C 390.761719 342.683594 388.648438 344.109375 384.152344 340.34375 C 380.371094 337.179688 380.507812 333.351562 377.375 330.605469 C 374.5 328.085938 368.972656 326.445312 365.402344 325.4375 C 358.4375 323.46875 361.460938 319.882812 359.113281 315.203125 C 352.417969 318.757812 347.132812 324.570312 343.597656 332.355469 C 340.234375 339.769531 339.402344 349.898438 336.894531 358.171875 C 329.183594 383.574219 306.867188 395.566406 300.042969 419.324219 C 297.515625 428.125 297.0625 439.210938 300.140625 447.710938 C 303.179688 456.089844 307.105469 461.453125 313.558594 466.707031 C 317.910156 470.25 328.539062 476.898438 335.398438 477.222656 "/>
<path fill-rule="evenodd" fill="#A389B5" fill-opacity="1" d="M 364.691406 438.066406 C 366.738281 436.972656 373.425781 430.386719 380.398438 426.734375 C 402.078125 415.386719 403.691406 421.171875 406.765625 413.183594 C 410.589844 403.253906 415.15625 395.089844 418.558594 385.1875 C 420.746094 388.871094 428.679688 406.785156 430.972656 410.074219 C 437.363281 409.347656 451.382812 402.832031 455.277344 399.960938 C 455.046875 397.636719 447.941406 384.410156 446.507812 381.484375 C 443.730469 375.8125 421.1875 327.9375 419.335938 325.863281 C 418.480469 326.496094 419.089844 325.933594 418.339844 326.867188 L 384.992188 395.738281 C 381.152344 403.484375 365.339844 434.1875 364.691406 438.066406 "/>
<path fill-rule="evenodd" fill="#DD0B82" fill-opacity="1" d="M 378.296875 475.210938 C 379.914062 472.484375 380.589844 469.632812 382.039062 466.949219 C 397.558594 438.222656 434.714844 440.265625 460.992188 415.417969 C 469.410156 407.457031 475.714844 399.644531 479.757812 387.351562 C 478.445312 387.6875 473.917969 392.820312 472.640625 394 C 470.191406 396.265625 468.171875 397.816406 464.746094 400.183594 C 438.679688 418.179688 430.253906 413.992188 404.578125 422.789062 C 388.621094 428.25 380.484375 431.671875 368.582031 441.847656 C 361.421875 447.964844 346.839844 466.996094 347.324219 475.324219 Z M 378.296875 475.210938 "/>
<path fill-rule="evenodd" fill="#A389B5" fill-opacity="1" d="M 248.136719 369.660156 C 245.828125 370.570312 246.757812 370.023438 245.1875 371.800781 L 231.0625 387.019531 C 217.804688 401.96875 219.5625 395.46875 219.558594 408.683594 C 219.554688 418.484375 218.285156 469.851562 219.949219 474.554688 C 223.140625 475.824219 229.613281 474.957031 233.742188 474.980469 C 238.492188 475.007812 243.289062 475.273438 248.042969 474.976562 Z M 248.136719 369.660156 "/>
<path fill-rule="evenodd" fill="#A389B5" fill-opacity="1" d="M 291.605469 338.566406 C 288.492188 333.34375 286.371094 328.730469 283.523438 324.03125 L 251.960938 324.097656 C 252.082031 325.5 292.734375 396.363281 299.28125 405.621094 C 300.589844 404.898438 309.808594 390.882812 311.949219 388.28125 C 313.433594 386.480469 315.226562 385.039062 316.171875 382.347656 Z M 291.605469 338.566406 "/>
<path fill-rule="evenodd" fill="#A389B5" fill-opacity="1" d="M 443.214844 434.394531 C 443.035156 437.066406 454.878906 460.128906 457.386719 464.960938 C 462.101562 474.042969 460.777344 474.941406 464.566406 475.265625 L 492.554688 475.105469 C 491.050781 468.570312 469.742188 427.769531 466.222656 419.277344 C 463.953125 421.046875 458.179688 425.292969 454.824219 427.605469 C 450.539062 430.5625 447.332031 432.085938 443.214844 434.394531 "/>
<path fill-rule="nonzero" fill="#373435" fill-opacity="1" d="M 100.554688 521.953125 L 100.554688 500.925781 L 104.578125 500.925781 L 116.984375 516.066406 L 115.03125 516.066406 L 115.03125 500.925781 L 119.835938 500.925781 L 119.835938 521.953125 L 115.84375 521.953125 L 103.40625 506.816406 L 105.359375 506.816406 L 105.359375 521.953125 Z M 122.058594 521.953125 L 131.429688 500.925781 L 136.238281 500.925781 L 145.636719 521.953125 L 140.53125 521.953125 L 132.84375 503.390625 L 134.765625 503.390625 L 127.046875 521.953125 Z M 126.746094 517.445312 L 128.035156 513.753906 L 138.851562 513.753906 L 140.171875 517.445312 Z M 147.832031 521.953125 L 147.832031 500.925781 L 157.382812 500.925781 C 159.664062 500.925781 161.675781 501.363281 163.417969 502.234375 C 165.160156 503.105469 166.523438 504.320312 167.503906 505.882812 C 168.484375 507.445312 168.976562 509.296875 168.976562 511.441406 C 168.976562 513.5625 168.484375 515.410156 167.503906 516.980469 C 166.523438 518.554688 165.160156 519.773438 163.417969 520.644531 C 161.675781 521.515625 159.664062 521.953125 157.382812 521.953125 Z M 152.695312 517.957031 L 157.140625 517.957031 C 158.542969 517.957031 159.761719 517.691406 160.789062 517.160156 C 161.820312 516.628906 162.625 515.875 163.195312 514.894531 C 163.765625 513.914062 164.050781 512.761719 164.050781 511.441406 C 164.050781 510.097656 163.765625 508.941406 163.195312 507.96875 C 162.625 507 161.820312 506.25 160.789062 505.71875 C 159.761719 505.1875 158.542969 504.921875 157.140625 504.921875 L 152.695312 504.921875 Z M 169.578125 521.953125 L 178.949219 500.925781 L 183.753906 500.925781 L 193.15625 521.953125 L 188.050781 521.953125 L 180.359375 503.390625 L 182.28125 503.390625 L 174.5625 521.953125 Z M 174.261719 517.445312 L 175.554688 513.753906 L 186.367188 513.753906 L 187.6875 517.445312 Z M 214.0625 522.3125 C 212.398438 522.3125 210.863281 522.042969 209.449219 521.5 C 208.039062 520.960938 206.816406 520.199219 205.785156 519.21875 C 204.753906 518.238281 203.953125 517.085938 203.382812 515.765625 C 202.8125 514.445312 202.527344 513.003906 202.527344 511.441406 C 202.527344 509.878906 202.8125 508.4375 203.382812 507.113281 C 203.953125 505.792969 204.757812 504.640625 205.800781 503.660156 C 206.84375 502.679688 208.0625 501.917969 209.464844 501.378906 C 210.867188 500.835938 212.390625 500.566406 214.03125 500.566406 C 215.691406 500.566406 217.21875 500.835938 218.609375 501.378906 C 220.003906 501.917969 221.214844 502.679688 222.246094 503.660156 C 223.277344 504.640625 224.082031 505.789062 224.664062 507.101562 C 225.246094 508.410156 225.535156 509.859375 225.535156 511.441406 C 225.535156 513.003906 225.246094 514.449219 224.664062 515.78125 C 224.082031 517.113281 223.277344 518.261719 222.246094 519.234375 C 221.214844 520.207031 220.003906 520.960938 218.609375 521.5 C 217.21875 522.042969 215.703125 522.3125 214.0625 522.3125 Z M 214.03125 518.167969 C 214.972656 518.167969 215.839844 518.007812 216.628906 517.6875 C 217.417969 517.367188 218.117188 516.90625 218.714844 516.304688 C 219.316406 515.707031 219.78125 514.996094 220.113281 514.171875 C 220.445312 513.351562 220.609375 512.441406 220.609375 511.441406 C 220.609375 510.4375 220.445312 509.527344 220.113281 508.707031 C 219.78125 507.886719 219.324219 507.175781 218.730469 506.574219 C 218.140625 505.972656 217.445312 505.511719 216.644531 505.191406 C 215.84375 504.871094 214.972656 504.710938 214.03125 504.710938 C 213.089844 504.710938 212.222656 504.871094 211.433594 505.191406 C 210.640625 505.511719 209.945312 505.972656 209.34375 506.574219 C 208.742188 507.175781 208.277344 507.886719 207.949219 508.707031 C 207.617188 509.527344 207.453125 510.4375 207.453125 511.441406 C 207.453125 512.421875 207.617188 513.328125 207.949219 514.15625 C 208.277344 514.988281 208.738281 515.707031 209.332031 516.304688 C 209.921875 516.90625 210.617188 517.367188 211.417969 517.6875 C 212.21875 518.007812 213.089844 518.167969 214.03125 518.167969 Z M 211.296875 499.214844 L 215.351562 494.890625 L 220.398438 494.890625 L 214.960938 499.214844 Z M 229.199219 521.953125 L 229.199219 500.925781 L 239.472656 500.925781 C 242.113281 500.925781 244.101562 501.425781 245.433594 502.429688 C 246.765625 503.429688 247.429688 504.753906 247.429688 506.394531 C 247.429688 507.496094 247.160156 508.453125 246.621094 509.261719 C 246.078125 510.074219 245.339844 510.699219 244.398438 511.140625 C 243.457031 511.578125 242.375 511.800781 241.152344 511.800781 L 241.722656 510.570312 C 243.046875 510.570312 244.21875 510.785156 245.238281 511.214844 C 246.257812 511.644531 247.054688 512.28125 247.625 513.121094 C 248.195312 513.960938 248.480469 514.996094 248.480469 516.214844 C 248.480469 518.019531 247.769531 519.425781 246.347656 520.433594 C 244.929688 521.445312 242.835938 521.953125 240.070312 521.953125 Z M 234.035156 518.289062 L 239.710938 518.289062 C 240.972656 518.289062 241.929688 518.082031 242.578125 517.671875 C 243.230469 517.261719 243.554688 516.605469 243.554688 515.707031 C 243.554688 514.824219 243.230469 514.167969 242.578125 513.738281 C 241.929688 513.308594 240.972656 513.09375 239.710938 513.09375 L 233.675781 513.09375 L 233.675781 509.546875 L 238.871094 509.546875 C 240.050781 509.546875 240.957031 509.34375 241.589844 508.933594 C 242.21875 508.523438 242.535156 507.894531 242.535156 507.054688 C 242.535156 506.234375 242.21875 505.617188 241.589844 505.207031 C 240.957031 504.796875 240.050781 504.59375 238.871094 504.59375 L 234.035156 504.59375 Z M 258.335938 521.953125 L 249.261719 500.925781 L 254.519531 500.925781 L 262.449219 519.550781 L 259.355469 519.550781 L 267.40625 500.925781 L 272.242188 500.925781 L 263.140625 521.953125 Z M 273.984375 521.953125 L 273.984375 500.925781 L 278.847656 500.925781 L 278.847656 521.953125 Z M 294.046875 522.3125 C 292.386719 522.3125 290.847656 522.042969 289.4375 521.5 C 288.027344 520.960938 286.804688 520.199219 285.773438 519.21875 C 284.742188 518.238281 283.941406 517.085938 283.371094 515.765625 C 282.800781 514.445312 282.511719 513.003906 282.511719 511.441406 C 282.511719 509.878906 282.800781 508.4375 283.371094 507.113281 C 283.941406 505.792969 284.746094 504.640625 285.789062 503.660156 C 286.828125 502.679688 288.050781 501.917969 289.453125 501.378906 C 290.851562 500.835938 292.375 500.566406 294.019531 500.566406 C 295.679688 500.566406 297.207031 500.835938 298.597656 501.378906 C 299.988281 501.917969 301.199219 502.679688 302.230469 503.660156 C 303.261719 504.640625 304.070312 505.789062 304.648438 507.101562 C 305.230469 508.410156 305.519531 509.859375 305.519531 511.441406 C 305.519531 513.003906 305.230469 514.449219 304.648438 515.78125 C 304.070312 517.113281 303.261719 518.261719 302.230469 519.234375 C 301.199219 520.207031 299.988281 520.960938 298.597656 521.5 C 297.207031 522.042969 295.691406 522.3125 294.046875 522.3125 Z M 294.019531 518.167969 C 294.957031 518.167969 295.824219 518.007812 296.617188 517.6875 C 297.40625 517.367188 298.101562 516.90625 298.703125 516.304688 C 299.304688 515.707031 299.769531 514.996094 300.097656 514.171875 C 300.429688 513.351562 300.59375 512.441406 300.59375 511.441406 C 300.59375 510.4375 300.429688 509.527344 300.097656 508.707031 C 299.769531 507.886719 299.308594 507.175781 298.71875 506.574219 C 298.128906 505.972656 297.429688 505.511719 296.628906 505.191406 C 295.828125 504.871094 294.957031 504.710938 294.019531 504.710938 C 293.078125 504.710938 292.210938 504.871094 291.417969 505.191406 C 290.628906 505.511719 289.933594 505.972656 289.332031 506.574219 C 288.730469 507.175781 288.265625 507.886719 287.933594 508.707031 C 287.605469 509.527344 287.4375 510.4375 287.4375 511.441406 C 287.4375 512.421875 287.605469 513.328125 287.933594 514.15625 C 288.265625 514.988281 288.726562 515.707031 289.316406 516.304688 C 289.90625 516.90625 290.601562 517.367188 291.40625 517.6875 C 292.207031 518.007812 293.078125 518.167969 294.019531 518.167969 Z M 307.445312 526.578125 L 309.425781 519.371094 L 310.085938 522.074219 C 309.226562 522.074219 308.519531 521.824219 307.96875 521.320312 C 307.417969 520.820312 307.144531 520.128906 307.144531 519.25 C 307.144531 518.367188 307.425781 517.667969 307.984375 517.148438 C 308.546875 516.625 309.234375 516.367188 310.054688 516.367188 C 310.898438 516.367188 311.589844 516.628906 312.128906 517.160156 C 312.667969 517.691406 312.941406 518.386719 312.941406 519.25 C 312.941406 519.507812 312.917969 519.765625 312.878906 520.015625 C 312.839844 520.265625 312.765625 520.566406 312.65625 520.917969 C 312.542969 521.265625 312.371094 521.710938 312.128906 522.253906 L 310.417969 526.578125 Z M 329.308594 521.953125 L 329.308594 504.890625 L 322.582031 504.890625 L 322.582031 500.925781 L 340.902344 500.925781 L 340.902344 504.890625 L 334.175781 504.890625 L 334.175781 521.953125 Z M 352.5 522.3125 C 349.515625 522.3125 347.179688 521.484375 345.5 519.820312 C 343.816406 518.15625 342.976562 515.785156 342.976562 512.699219 L 342.976562 500.925781 L 347.84375 500.925781 L 347.84375 512.519531 C 347.84375 514.523438 348.253906 515.964844 349.074219 516.847656 C 349.894531 517.726562 351.046875 518.167969 352.527344 518.167969 C 354.011719 518.167969 355.160156 517.726562 355.980469 516.847656 C 356.804688 515.964844 357.214844 514.523438 357.214844 512.519531 L 357.214844 500.925781 L 362.019531 500.925781 L 362.019531 512.699219 C 362.019531 515.785156 361.179688 518.15625 359.496094 519.820312 C 357.816406 521.484375 355.480469 522.3125 352.5 522.3125 Z M 366.824219 521.953125 L 366.824219 500.925781 L 376.378906 500.925781 C 378.660156 500.925781 380.671875 501.363281 382.414062 502.234375 C 384.15625 503.105469 385.519531 504.320312 386.5 505.882812 C 387.480469 507.445312 387.972656 509.296875 387.972656 511.441406 C 387.972656 513.5625 387.480469 515.410156 386.5 516.980469 C 385.519531 518.554688 384.15625 519.773438 382.414062 520.644531 C 380.671875 521.515625 378.660156 521.953125 376.378906 521.953125 Z M 371.691406 517.957031 L 376.136719 517.957031 C 377.539062 517.957031 378.753906 517.691406 379.785156 517.160156 C 380.816406 516.628906 381.617188 515.875 382.1875 514.894531 C 382.757812 513.914062 383.046875 512.761719 383.046875 511.441406 C 383.046875 510.097656 382.757812 508.941406 382.1875 507.96875 C 381.617188 507 380.816406 506.25 379.785156 505.71875 C 378.753906 505.1875 377.539062 504.921875 376.136719 504.921875 L 371.691406 504.921875 Z M 401.847656 522.3125 C 400.1875 522.3125 398.648438 522.042969 397.238281 521.5 C 395.824219 520.960938 394.605469 520.199219 393.574219 519.21875 C 392.542969 518.238281 391.738281 517.085938 391.167969 515.765625 C 390.597656 514.445312 390.3125 513.003906 390.3125 511.441406 C 390.3125 509.878906 390.597656 508.4375 391.167969 507.113281 C 391.738281 505.792969 392.546875 504.640625 393.585938 503.660156 C 394.628906 502.679688 395.851562 501.917969 397.253906 501.378906 C 398.652344 500.835938 400.175781 500.566406 401.816406 500.566406 C 403.480469 500.566406 405.007812 500.835938 406.398438 501.378906 C 407.789062 501.917969 409 502.679688 410.03125 503.660156 C 411.0625 504.640625 411.871094 505.789062 412.449219 507.101562 C 413.03125 508.410156 413.320312 509.859375 413.320312 511.441406 C 413.320312 513.003906 413.03125 514.449219 412.449219 515.78125 C 411.871094 517.113281 411.0625 518.261719 410.03125 519.234375 C 409 520.207031 407.789062 520.960938 406.398438 521.5 C 405.007812 522.042969 403.488281 522.3125 401.847656 522.3125 Z M 401.816406 518.167969 C 402.757812 518.167969 403.625 518.007812 404.414062 517.6875 C 405.207031 517.367188 405.902344 516.90625 406.503906 516.304688 C 407.105469 515.707031 407.570312 514.996094 407.898438 514.171875 C 408.230469 513.351562 408.394531 512.441406 408.394531 511.441406 C 408.394531 510.4375 408.230469 509.527344 407.898438 508.707031 C 407.570312 507.886719 407.109375 507.175781 406.519531 506.574219 C 405.929688 505.972656 405.230469 505.511719 404.429688 505.191406 C 403.628906 504.871094 402.757812 504.710938 401.816406 504.710938 C 400.875 504.710938 400.011719 504.871094 399.21875 505.191406 C 398.429688 505.511719 397.734375 505.972656 397.132812 506.574219 C 396.53125 507.175781 396.066406 507.886719 395.734375 508.707031 C 395.40625 509.527344 395.238281 510.4375 395.238281 511.441406 C 395.238281 512.421875 395.40625 513.328125 395.734375 514.15625 C 396.066406 514.988281 396.527344 515.707031 397.117188 516.304688 C 397.707031 516.90625 398.402344 517.367188 399.203125 517.6875 C 400.003906 518.007812 400.875 518.167969 401.816406 518.167969 Z M 425.484375 521.953125 L 425.484375 500.925781 L 429.511719 500.925781 L 438.460938 515.765625 L 436.328125 515.765625 L 445.128906 500.925781 L 449.125 500.925781 L 449.183594 521.953125 L 444.621094 521.953125 L 444.589844 507.925781 L 445.429688 507.925781 L 438.402344 519.730469 L 436.210938 519.730469 L 429.03125 507.925781 L 430.050781 507.925781 L 430.050781 521.953125 Z M 459.398438 521.953125 L 459.398438 513.363281 L 460.507812 516.304688 L 451.257812 500.925781 L 456.421875 500.925781 L 463.511719 512.730469 L 460.539062 512.730469 L 467.65625 500.925781 L 472.433594 500.925781 L 463.179688 516.304688 L 464.261719 513.363281 L 464.261719 521.953125 Z M 470.421875 521.953125 L 479.792969 500.925781 L 484.597656 500.925781 L 494 521.953125 L 488.894531 521.953125 L 481.203125 503.390625 L 483.125 503.390625 L 475.40625 521.953125 Z M 475.105469 517.445312 L 476.398438 513.753906 L 487.210938 513.753906 L 488.53125 517.445312 Z M 475.105469 517.445312 "/>
</svg>
